# xmcd
#
# Track frame offsets: 
#        200
#        9050
#        19702
#        30805
#        43830
#        58307
#        70587
#        80387
#        88502
#        99475
#        112480
#        122945
#        131062
#        144570
#
# Disc length: 2086 seconds
#
# Revision: 0
# Processed by: cddbd v1.4PL0 Copyright (c) Steve Scherf et al.
# Submitted via: ExactAudioCopy v0.90b4
#
DISCID=b708240e
DTITLE=Country Gentlemen - Let The Light Shine Down
DYEAR=1991
DGENRE=Country
TTITLE0=Let The Light Shine Down
TTITLE1=Lord Don't Leave Me Here
TTITLE2=Waiting For The Boys To Come Home
TTITLE3=Along The Way
TTITLE4=I'd Rather Live By The Side Of The Road
TTITLE5=Take Me In A Lifeboat
TTITLE6=Crying Holy
TTITLE7=Preaching Praying Singing
TTITLE8=These Men Of God
TTITLE9=Working On A Road
TTITLE10=Heavenward Bound
TTITLE11=Paul And Silas
TTITLE12=When They Ring Those Golden Bells
TTITLE13=Beautiful Life
EXTD=
EXTT0=
EXTT1=
EXTT2=
EXTT3=
EXTT4=
EXTT5=
EXTT6=
EXTT7=
EXTT8=
EXTT9=
EXTT10=
EXTT11=
EXTT12=
EXTT13=
PLAYORDER=
